<?xml version="1.0" encoding="utf-8"?>
<!-- Generator: Adobe Illustrator 19.2.0, SVG Export Plug-In . SVG Version: 6.00 Build 0)  -->
<svg version="1.1" id="Layer_1" xmlns="http://www.w3.org/2000/svg" xmlns:xlink="http://www.w3.org/1999/xlink" x="0px" y="0px"
	 viewBox="0 0 114 43" style="enable-background:new 0 0 114 43;" xml:space="preserve">
<style type="text/css">
	.st0{fill:#FFFFFF;}
	.st1{clip-path:url(#SVGID_18_);fill:#FFFFFF;}
</style>
<g>
	<g>
		<path class="st0" d="M9.4,15.3c-1.8,0-2.9-1.1-2.9-2.7V6.3h1.6v6.3c0,1,0.6,1.5,1.4,1.5c0.8,0,1.3-0.5,1.3-1.5V6.3h1.5v6.3
			C12.3,14.2,11.1,15.3,9.4,15.3"/>
		<polygon class="st0" points="17.7,15.2 15.2,10.7 15.1,10.7 15.1,15.2 13.5,15.2 13.5,6.3 15.1,6.3 15.1,10.4 15.2,10.4 17.7,6.3 
			19.4,6.3 16.6,10.4 19.6,15.2 		"/>
		<path class="st0" d="M8.4,23.1l-0.4,0v3.5H6.4v-8.5c0.6-0.3,1.4-0.5,2.5-0.5c2.3,0,3.3,1.2,3.3,2.8C12.1,21.9,11,23.3,8.4,23.1
			 M8.9,18.5c-0.4,0-0.7,0.1-0.8,0.1v3.5l0.3,0c1.6,0.1,2.2-0.6,2.2-1.8C10.6,19.1,10.1,18.5,8.9,18.5"/>
		<path class="st0" d="M15.3,26.7c-2,0-2.9-1.6-2.9-3.6c0-2.1,0.9-3.6,2.9-3.6c2,0,2.9,1.5,2.9,3.6C18.2,25.2,17.2,26.7,15.3,26.7
			 M15.3,20.5c-1.1,0-1.3,1.3-1.3,2.6c0,1.3,0.2,2.6,1.3,2.6c1.1,0,1.3-1.2,1.3-2.6C16.6,21.8,16.4,20.5,15.3,20.5"/>
		<path class="st0" d="M25.9,26.6h-1.4l-1.2-4.4c-0.1-0.5-0.1-0.9-0.1-0.9h0c0,0,0,0.4-0.2,0.9l-1.2,4.4h-1.4l-1.9-7h1.6l1,4.5
			C21,24.7,21,25,21,25h0c0,0,0-0.4,0.2-0.9l1.2-4.5h1.3l1.2,4.5c0.1,0.4,0.2,0.9,0.2,0.9h0c0,0,0-0.5,0.1-0.9l1.1-4.5h1.4
			L25.9,26.6z"/>
		<path class="st0" d="M29.4,23.7c0.1,1.3,0.8,1.9,1.9,1.9c0.8,0,1.4-0.2,1.8-0.4l0.4,1c-0.5,0.3-1.2,0.5-2.3,0.5
			c-2,0-3.2-1.3-3.2-3.6c0-2.3,1.2-3.6,3-3.6c1.9,0,2.9,1.2,2.8,3.6L29.4,23.7z M30.8,20.4c-0.9,0-1.6,0.8-1.5,2.4l2.9-0.4
			C32.2,21,31.7,20.4,30.8,20.4"/>
		<path class="st0" d="M37.5,20.6c-0.5-0.2-1.1-0.2-1.5,0.1v5.9h-1.6V20c0.7-0.3,1.6-0.5,3.4-0.5L37.5,20.6z"/>
		<path class="st0" d="M11.7,38l-3.4-5.8c-0.3-0.5-0.5-1-0.5-1h0c0,0,0.1,0.5,0.1,1V38H6.4v-8.9H8l3.2,5.4c0.3,0.5,0.5,0.9,0.5,0.9
			h0c0,0,0-0.4,0-0.9v-5.4H13V38H11.7z"/>
		<path class="st0" d="M15.3,35.1c0.1,1.3,0.8,1.9,1.9,1.9c0.8,0,1.4-0.2,1.8-0.4l0.4,1c-0.5,0.3-1.2,0.5-2.3,0.5
			c-2,0-3.2-1.3-3.2-3.6c0-2.3,1.2-3.6,3-3.6c1.9,0,2.9,1.2,2.8,3.6L15.3,35.1z M16.8,31.8c-0.9,0-1.6,0.8-1.5,2.4l2.9-0.4
			C18.1,32.4,17.6,31.8,16.8,31.8"/>
		<path class="st0" d="M22.6,38.1c-1.4,0-1.9-0.9-1.9-1.9V32h-0.8v-1h0.8v-1.5l1.6-0.4v2h1.1v1h-1.1v4.1c0,0.5,0.2,0.9,0.8,0.9
			c0.1,0,0.2,0,0.4-0.1v1C23.3,38,23,38.1,22.6,38.1"/>
		<path class="st0" d="M31.1,38h-1.4l-1.2-4.4c-0.1-0.5-0.1-0.9-0.1-0.9h0c0,0,0,0.4-0.2,0.9L27,38h-1.4l-1.9-7h1.6l1,4.5
			c0.1,0.5,0.1,0.9,0.1,0.9h0c0,0,0-0.4,0.2-0.9l1.2-4.5h1.3l1.2,4.5c0.1,0.4,0.2,0.9,0.2,0.9h0c0,0,0-0.5,0.1-0.9l1.1-4.5h1.4
			L31.1,38z"/>
		<path class="st0" d="M36.1,38.1c-2,0-2.9-1.6-2.9-3.6c0-2.1,0.9-3.6,2.9-3.6c2,0,2.9,1.5,2.9,3.6C39,36.6,38,38.1,36.1,38.1
			 M36.1,31.9c-1.1,0-1.3,1.3-1.3,2.6c0,1.3,0.2,2.6,1.3,2.6c1.1,0,1.3-1.2,1.3-2.6C37.4,33.1,37.2,31.9,36.1,31.9"/>
		<path class="st0" d="M42.8,32c-0.5-0.2-1.1-0.2-1.5,0.1V38h-1.6v-6.6c0.7-0.3,1.6-0.5,3.4-0.5L42.8,32z"/>
		<polygon class="st0" points="47.5,38 45.1,34.4 45.1,34.4 45.1,38 43.5,38 43.5,27.8 45.1,27.8 45.1,34.2 45.1,34.2 47.3,31 
			49,31 46.5,34.2 49.2,38 		"/>
		<path class="st0" d="M51.3,38.1c-0.8,0-1.5-0.2-1.9-0.5l0.4-1c0.3,0.2,0.7,0.4,1.3,0.4c0.6,0,1.1-0.4,1.1-1c0-0.6-0.3-0.9-1-1.2
			c-1.3-0.5-1.6-1.2-1.6-2c0-1.1,0.9-2,2.2-2c0.8,0,1.4,0.2,1.8,0.5l-0.4,0.9c-0.2-0.2-0.6-0.4-1.1-0.4c-0.6,0-1,0.4-1,0.9
			c0,0.6,0.4,0.9,1,1.1c1.4,0.5,1.7,1.2,1.7,2.1C53.8,37.1,52.9,38.1,51.3,38.1"/>
	</g>
	<g>
		<defs>
			<path id="SVGID_1_" d="M39.6,6.7c-8.7,0.5-16,1.6-15.8,1.6c0.1,0,0.2,0.1,0.3,0.1c0.1,0,7.2-0.8,15.3-1.2
				c57.6-3.4,92.6,13.4,35.9,26.3c-4.3,1-9,1.9-13.2,2.9c-1,0.2-2.5,0.5-2.7,0.8c-0.2,0.3,0.6,0.9,2.6,0.7c1.5-0.1,2.8-0.4,4.1-0.6
				c4.2-0.7,8.1-1.4,11.7-2.2c56.1-12.9,29.4-29-21.9-29C50.9,6.2,45.4,6.4,39.6,6.7"/>
		</defs>
		<use xlink:href="#SVGID_1_"  style="overflow:visible;fill:#FFFFFF;"/>
		<clipPath id="SVGID_2_">
			<use xlink:href="#SVGID_1_"  style="overflow:visible;"/>
		</clipPath>
	</g>
	<g>
		<defs>
			<path id="SVGID_3_" d="M39.5,7.4c-8,0.4-14.7,1.3-14.5,1.4c0.1,0,0.2,0.1,0.3,0.1c0.1,0,6.7-0.7,14.1-1
				C91.7,5.1,121.6,20,72,31.3c-3.8,0.9-7.7,1.7-11.3,2.5c-1,0.2-2.1,0.5-2.7,0.8c-0.5,0.3-0.4,0.8,1.2,0.9c0.9,0,2.6-0.2,3.4-0.3
				c4.5-0.6,8.5-1.4,12.1-2.2c50.1-11.4,26.3-26-21-26C49.1,7,44.4,7.1,39.5,7.4"/>
		</defs>
		<use xlink:href="#SVGID_3_"  style="overflow:visible;fill:#FFFFFF;"/>
		<clipPath id="SVGID_4_">
			<use xlink:href="#SVGID_3_"  style="overflow:visible;"/>
		</clipPath>
	</g>
	<g>
		<defs>
			<path id="SVGID_5_" d="M39.4,8c-7.3,0.4-13.4,1.1-13.2,1.1c0.1,0,0.2,0.1,0.3,0.1c0.1,0,6.1-0.5,12.8-0.8
				c47-2.1,71.6,11,29.1,20.5c-3.3,0.7-6.9,1.4-9.9,2.2c-0.9,0.2-2,0.5-2.4,0.7c-0.3,0.3,0,0.8,1.4,0.8c1,0,2.4-0.2,3.2-0.3
				c3.8-0.5,7.3-1.1,10.3-1.8c43.9-9.9,23.2-22.9-20.1-22.9C47.2,7.7,43.3,7.8,39.4,8"/>
		</defs>
		<use xlink:href="#SVGID_5_"  style="overflow:visible;fill:#FFFFFF;"/>
		<clipPath id="SVGID_6_">
			<use xlink:href="#SVGID_5_"  style="overflow:visible;"/>
		</clipPath>
	</g>
	<g>
		<defs>
			<path id="SVGID_7_" d="M39.2,8.7c-6.6,0.3-12.2,0.9-12,0.9c0.1,0,0.2,0.1,0.3,0.1c0.1,0,5.6-0.4,11.5-0.6
				C81,7.7,100.5,19,64.8,26.7c-3.2,0.7-7.1,1.4-9.7,2.2c-1.5,0.5-0.3,1.4,2.8,1.1c3.5-0.4,6.7-1,9.4-1.5
				c38-8.3,20.3-19.9-19.2-19.9C45.3,8.5,42.3,8.5,39.2,8.7"/>
		</defs>
		<use xlink:href="#SVGID_7_"  style="overflow:visible;fill:#FFFFFF;"/>
		<clipPath id="SVGID_8_">
			<use xlink:href="#SVGID_7_"  style="overflow:visible;"/>
		</clipPath>
	</g>
	<g>
		<defs>
			<path id="SVGID_9_" d="M39.1,9.3C33.2,9.5,28.2,10,28.3,10c0.1,0,0.2,0.1,0.3,0.1c0.1,0,5-0.3,10.3-0.4
				c36.8-0.8,51.2,8.8,22.2,14.6c-2.4,0.5-5,1-6.9,1.5c-1.1,0.3-1.9,0.7-1.4,1c0.7,0.5,1.8,0.5,4.1,0.3c2.6-0.3,4.9-0.7,7-1.1
				C95.9,19.3,81.4,9.2,45.5,9.2C43.4,9.2,41.3,9.2,39.1,9.3"/>
		</defs>
		<use xlink:href="#SVGID_9_"  style="overflow:visible;fill:#FFFFFF;"/>
		<clipPath id="SVGID_10_">
			<use xlink:href="#SVGID_9_"  style="overflow:visible;"/>
		</clipPath>
	</g>
	<g>
		<defs>
			<path id="SVGID_11_" d="M38.9,9.9c-5.1,0.1-9.7,0.5-9.5,0.5c0.1,0,0.2,0.1,0.3,0.1c0.1,0,4.5-0.1,9.1-0.2
				C70.7,10.2,80,18.1,57.6,22c-2.1,0.4-5.5,0.9-6.2,1.4c-0.4,0.4-0.7,1.1,1.8,1.1c2.4,0,5.3-0.5,7-0.8C86.5,18.6,75.3,9.9,42.6,9.9
				C41.4,9.9,40.2,9.9,38.9,9.9"/>
		</defs>
		<use xlink:href="#SVGID_11_"  style="overflow:visible;fill:#FFFFFF;"/>
		<clipPath id="SVGID_12_">
			<use xlink:href="#SVGID_11_"  style="overflow:visible;"/>
		</clipPath>
	</g>
	<g>
		<defs>
			<path id="SVGID_13_" d="M38.8,10.6c-4.4,0-8.4,0.2-8.2,0.3c0.1,0,0.2,0.1,0.3,0.1c0.1,0,0.9,0,2.2,0c1.5,0,3.5,0,5.6,0
				c26.7,0.4,30.8,6.5,15.1,8.6c-2,0.3-3.8,0.6-4.6,1.1c-0.6,0.4,0,0.9,1.5,1c1.7,0.2,4.3-0.1,5.8-0.4c20.4-3.4,12.7-10.8-17.4-10.8
				C39,10.6,38.9,10.6,38.8,10.6"/>
		</defs>
		<use xlink:href="#SVGID_13_"  style="overflow:visible;fill:#FFFFFF;"/>
		<clipPath id="SVGID_14_">
			<use xlink:href="#SVGID_13_"  style="overflow:visible;"/>
		</clipPath>
	</g>
	<g>
		<defs>
			<path id="SVGID_15_" d="M31.7,11.3c0.1,0,0.2,0.1,0.3,0.1c0.1,0,3.4,0.1,6.5,0.3c8.7,0.4,18.3,1.7,17.8,3.9
				c-0.1,0.4-0.6,0.9-2,1.2c-1.5,0.4-4.2,0.5-5.9,0.8c-1.7,0.4-1.5,0.8-0.4,1.2c1,0.3,2.8,0.5,4.8,0.3c14-1.6,11.3-7.3-14.2-7.8
				c-0.9,0-1.8,0-2.6,0C33.5,11.2,31.6,11.2,31.7,11.3"/>
		</defs>
		<use xlink:href="#SVGID_15_"  style="overflow:visible;fill:#FFFFFF;"/>
		<clipPath id="SVGID_16_">
			<use xlink:href="#SVGID_15_"  style="overflow:visible;"/>
		</clipPath>
	</g>
	<g>
		<defs>
			<path id="SVGID_17_" d="M32.8,11.7c0.1,0,0.2,0.1,0.3,0.1c0.1,0,2.9,0.2,5.3,0.5c3.5,0.3,7,0.7,9.4,1.4c1.3,0.4,4.4,1.4,0.5,1.8
				c-1.4,0.1-2,0.2-2.1,0.5c-0.1,0.3,0.7,0.7,1.5,0.8c1.4,0.3,4.2-0.2,5.4-0.5c2.7-0.7,1.5-1.7,0.2-2.3c-2.8-1.2-8.6-1.9-14.7-2.2
				c-2.1-0.1-4.1-0.2-5.1-0.2C33,11.7,32.7,11.7,32.8,11.7"/>
		</defs>
		<use xlink:href="#SVGID_17_"  style="overflow:visible;fill:#FFFFFF;"/>
		<clipPath id="SVGID_18_">
			<use xlink:href="#SVGID_17_"  style="overflow:visible;"/>
		</clipPath>
		
			<rect x="34.6" y="3.9" transform="matrix(0.6601 -0.7512 0.7512 0.6601 4.2398 38.1212)" class="st1" width="19.3" height="20.9"/>
	</g>
</g>
</svg>
